<svg width="40" height="40" viewBox="0 0 40 40" fill="none" xmlns="http://www.w3.org/2000/svg">
<path d="M12.5 10.6719H18.5C18.7859 10.6719 19.0605 10.7851 19.2627 10.9873C19.4649 11.1895 19.5781 11.4641 19.5781 11.75C19.5781 12.0359 19.4649 12.3105 19.2627 12.5127C19.0605 12.7149 18.7859 12.8281 18.5 12.8281H13.5781V27.1719H18.5C18.7859 27.1719 19.0605 27.2851 19.2627 27.4873C19.4649 27.6895 19.5781 27.9641 19.5781 28.25C19.5781 28.5359 19.4649 28.8105 19.2627 29.0127C19.0605 29.2149 18.7859 29.3281 18.5 29.3281H12.5C12.2141 29.3281 11.9395 29.2149 11.7373 29.0127C11.5351 28.8105 11.4219 28.5359 11.4219 28.25V11.75C11.4219 11.4641 11.5351 11.1895 11.7373 10.9873C11.9395 10.7851 12.2141 10.6719 12.5 10.6719ZM25.249 15.1709C25.5355 15.1709 25.8101 15.2848 26.0127 15.4873L29.7627 19.2373C29.8631 19.3375 29.9427 19.4568 29.9971 19.5879C30.0513 19.7189 30.0792 19.8592 30.0791 20.001C30.079 20.1427 30.0514 20.2832 29.9971 20.4141C29.9561 20.5125 29.9006 20.6046 29.833 20.6865L29.7617 20.7646L26.0117 24.5146C25.8092 24.7172 25.5345 24.8311 25.248 24.8311C24.9616 24.831 24.6869 24.7172 24.4844 24.5146C24.2818 24.3121 24.168 24.0374 24.168 23.751C24.168 23.4646 24.2819 23.1899 24.4844 22.9873L26.3145 21.1582L26.3945 21.0781H18.5C18.2141 21.0781 17.9395 20.9649 17.7373 20.7627C17.5351 20.5605 17.4219 20.2859 17.4219 20C17.4219 19.7141 17.5351 19.4395 17.7373 19.2373C17.9395 19.0351 18.2141 18.9219 18.5 18.9219H26.3945L26.3145 18.8418L24.4854 17.0146C24.2828 16.8121 24.169 16.5374 24.1689 16.251C24.1689 15.9645 24.2828 15.6899 24.4854 15.4873C24.6879 15.2848 24.9626 15.1709 25.249 15.1709Z" fill="#475569" stroke="#475569" stroke-width="0.09375"/>
</svg>
