<svg width="69" height="18" viewBox="0 0 69 18" fill="none" xmlns="http://www.w3.org/2000/svg">
<path d="M5.6431 17.5C4.27231 17.5 3.07667 17.1905 2.05619 16.5715C1.05094 15.9378 0.365545 15.0904 0 14.0293L2.51312 12.8797C2.83297 13.5282 3.26706 14.0366 3.81538 14.4051C4.36369 14.7735 4.97293 14.9577 5.6431 14.9577C6.13049 14.9577 6.50365 14.8619 6.76258 14.6704C7.02151 14.4788 7.15097 14.2135 7.15097 13.8745C7.15097 13.6977 7.10528 13.5503 7.01389 13.4324C6.92251 13.2997 6.78543 13.1818 6.60266 13.0787C6.41988 12.9755 6.19142 12.8871 5.91726 12.8134L3.79253 12.2386C2.77205 11.9586 1.98765 11.5091 1.43933 10.8901C0.891016 10.2564 0.616857 9.51214 0.616857 8.65735C0.616857 7.90572 0.814861 7.24989 1.21087 6.68986C1.60687 6.12982 2.16281 5.69506 2.87867 5.38557C3.59453 5.06134 4.417 4.89922 5.3461 4.89922C6.56458 4.89922 7.63075 5.17924 8.54461 5.73927C9.47371 6.28457 10.1286 7.0583 10.5094 8.06047L7.97345 9.21001C7.79068 8.70893 7.45559 8.31101 6.9682 8.01625C6.49604 7.70676 5.95534 7.55202 5.3461 7.55202C4.9044 7.55202 4.55408 7.64044 4.29515 7.81729C4.05146 7.99415 3.92961 8.23732 3.92961 8.54681C3.92961 8.70893 3.9753 8.85631 4.06669 8.98895C4.15807 9.12159 4.30277 9.23949 4.50077 9.34265C4.71401 9.44582 4.97293 9.54161 5.27756 9.63004L7.26521 10.2048C8.30092 10.4996 9.09293 10.9491 9.64125 11.5533C10.1896 12.1428 10.4637 12.8723 10.4637 13.7419C10.4637 14.4935 10.2581 15.1493 9.84687 15.7094C9.45086 16.2694 8.89493 16.7115 8.17907 17.0358C7.46321 17.3453 6.61789 17.5 5.6431 17.5Z" fill="#1E293B"/>
<path d="M16.0074 17.3674C14.4843 17.3674 13.3648 17.0505 12.649 16.4168C11.9483 15.7683 11.598 14.7588 11.598 13.3882V0.5H15.025V13.145C15.025 14.044 15.5276 14.4935 16.5329 14.4935H16.6243V17.3674H16.0074Z" fill="#1E293B"/>
<path d="M23.792 17.5C22.5583 17.5 21.4312 17.2274 20.4107 16.6821C19.4055 16.1368 18.5982 15.3925 17.989 14.4493C17.395 13.4913 17.098 12.4081 17.098 11.1996C17.098 9.97638 17.395 8.89315 17.989 7.94994C18.5982 7.00672 19.4055 6.26246 20.4107 5.71716C21.4312 5.17187 22.5583 4.89922 23.792 4.89922C25.0257 4.89922 26.1452 5.17187 27.1505 5.71716C28.1557 6.26246 28.9553 7.00672 29.5493 7.94994C30.1586 8.89315 30.4632 9.97638 30.4632 11.1996C30.4632 12.4081 30.1586 13.4913 29.5493 14.4493C28.9553 15.3925 28.1557 16.1368 27.1505 16.6821C26.1452 17.2274 25.0257 17.5 23.792 17.5ZM23.792 14.5156C24.4165 14.5156 24.9572 14.3756 25.4141 14.0956C25.8863 13.8156 26.2518 13.425 26.5108 12.9239C26.7849 12.4228 26.922 11.8481 26.922 11.1996C26.922 10.5511 26.7849 9.98374 26.5108 9.4974C26.2518 8.99632 25.8863 8.60576 25.4141 8.32575C24.9572 8.03099 24.4165 7.88362 23.792 7.88362C23.1675 7.88362 22.6192 8.03099 22.1471 8.32575C21.6749 8.60576 21.3017 8.99632 21.0276 9.4974C20.7687 9.98374 20.6392 10.5511 20.6392 11.1996C20.6392 11.8481 20.7687 12.4228 21.0276 12.9239C21.3017 13.425 21.6749 13.8156 22.1471 14.0956C22.6192 14.3756 23.1675 14.5156 23.792 14.5156Z" fill="#1E293B"/>
<path d="M37.3538 17.3674C35.8459 17.3674 34.6731 16.9768 33.8354 16.1957C33.0129 15.3999 32.6017 14.2945 32.6017 12.8797V8.03836H30.4998V5.1645H30.614C31.2537 5.1645 31.7411 5.00975 32.0762 4.70026C32.4265 4.39077 32.6017 3.92653 32.6017 3.30754V2.42328H36.0287V5.1645H38.953V8.03836H36.0287V12.6586C36.0287 13.0713 36.1048 13.4176 36.2571 13.6977C36.4094 13.9629 36.6455 14.1619 36.9654 14.2945C37.2852 14.4272 37.6812 14.4935 38.1534 14.4935C38.26 14.4935 38.3819 14.4861 38.5189 14.4714C38.656 14.4567 38.8007 14.4419 38.953 14.4272V17.2347C38.7246 17.2642 38.4656 17.2937 38.1762 17.3231C37.8869 17.3526 37.6127 17.3674 37.3538 17.3674Z" fill="#1E293B"/>
<path d="M40.0473 17.2347V0.5H43.4743V5.1645H45.9646C47.1069 5.1645 48.0893 5.35609 48.9118 5.73927C49.7343 6.12245 50.3664 6.66775 50.8081 7.37516C51.2498 8.08257 51.4706 8.92263 51.4706 9.89532V17.2347H48.0436V10.0722C48.0436 9.45319 47.8533 8.95947 47.4725 8.59103C47.0917 8.22258 46.5891 8.03836 45.9646 8.03836H43.4743V17.2347H40.0473Z" fill="#1E293B"/>
<path d="M58.2705 17.5C57.1282 17.5 56.1305 17.2863 55.2776 16.8589C54.4247 16.4315 53.7545 15.8346 53.2671 15.0683C52.7949 14.3019 52.5589 13.4103 52.5589 12.3934V5.1645H55.9859V12.327C55.9859 12.7692 56.0772 13.1524 56.26 13.4766C56.458 13.8008 56.7322 14.0587 57.0825 14.2503C57.4328 14.4272 57.8288 14.5156 58.2705 14.5156C58.7274 14.5156 59.1234 14.4272 59.4585 14.2503C59.8088 14.0587 60.0754 13.8008 60.2582 13.4766C60.4562 13.1524 60.5552 12.7692 60.5552 12.327V5.1645H63.9821V12.3934C63.9821 13.4103 63.7385 14.3019 63.2511 15.0683C62.7789 15.8346 62.1163 16.4315 61.2634 16.8589C60.4105 17.2863 59.4128 17.5 58.2705 17.5Z" fill="#1E293B"/>
<path d="M65.573 17.2347V5.1645H69V17.2347H65.573ZM65.573 4.08127V0.765279H69V4.08127H65.573Z" fill="#1E293B"/>
</svg>
